<?xml version="1.0" standalone="no"?>
<!DOCTYPE svg PUBLIC "-//W3C//DTD SVG 20010904//EN"
 "http://www.w3.org/TR/2001/REC-SVG-20010904/DTD/svg10.dtd">
<svg version="1.0" xmlns="http://www.w3.org/2000/svg"
 width="310.000000pt" height="147.000000pt" viewBox="0 0 310.000000 147.000000"
 preserveAspectRatio="xMidYMid meet">
<g transform="translate(0.000000,147.000000) scale(0.100000,-0.100000)"
fill="#000000" stroke="none">
<path d="M1520 1371 c-124 -41 -205 -142 -198 -249 3 -46 3 -47 38 -47 34 0
35 1 51 63 19 71 46 106 104 133 78 36 168 13 221 -57 26 -33 29 -46 29 -109
0 -63 -3 -76 -29 -109 -31 -41 -94 -75 -137 -76 -37 0 -50 -20 -52 -84 -1 -31
-4 -56 -7 -56 -3 0 -66 14 -140 30 -401 91 -653 82 -865 -28 -62 -33 -202
-148 -192 -159 3 -2 33 14 69 37 137 85 319 121 520 101 142 -14 231 -33 541
-115 360 -95 462 -111 682 -110 150 1 193 5 259 23 156 42 323 144 400 246 32
42 32 42 -63 -22 -71 -47 -186 -95 -283 -118 -81 -19 -282 -19 -413 0 -107 15
-386 73 -403 84 -6 3 -13 23 -17 43 -6 32 -4 39 11 43 60 18 129 63 159 102
47 62 58 103 53 190 -5 66 -9 80 -44 130 -52 74 -121 114 -207 119 -34 2 -73
0 -87 -5z"/>
<path d="M140 446 l0 -45 84 -3 85 -3 -89 -125 c-67 -94 -89 -133 -90 -157 l0
-33 160 0 160 0 0 45 0 45 -90 0 -89 0 90 127 c72 103 89 134 87 158 l-3 30
-152 3 -153 3 0 -45z"/>
<path d="M590 468 c-63 -32 -93 -89 -93 -177 -1 -36 5 -83 12 -103 34 -102
183 -146 292 -86 128 70 111 326 -24 377 -49 19 -138 13 -187 -11z m159 -94
c16 -21 21 -41 21 -89 0 -81 -23 -115 -79 -115 -25 0 -44 7 -56 20 -20 22 -31
103 -21 145 17 66 96 89 135 39z"/>
<path d="M937 483 c-4 -3 -7 -24 -7 -45 l0 -38 50 0 50 0 0 -160 0 -160 55 0
55 0 0 160 0 160 50 0 50 0 0 45 0 45 -148 0 c-82 0 -152 -3 -155 -7z"/>
<path d="M1280 445 l0 -45 80 0 c44 0 80 -3 80 -7 0 -5 -38 -62 -85 -128 -65
-91 -85 -128 -85 -152 l0 -33 160 0 160 0 0 45 0 44 -89 3 -89 3 84 119 c70
100 84 126 84 158 l0 38 -150 0 -150 0 0 -45z"/>
<path d="M1735 474 c-50 -26 -75 -55 -90 -108 -35 -118 0 -227 88 -273 36 -18
138 -20 182 -3 75 29 109 92 108 201 0 129 -70 199 -198 199 -35 0 -73 -7 -90
-16z m152 -101 c13 -19 18 -47 18 -94 0 -82 -18 -109 -76 -109 -56 0 -79 34
-79 115 0 82 23 115 80 115 32 0 43 -5 57 -27z"/>
<path d="M2100 285 l0 -205 51 0 52 0 -5 141 -5 140 24 -43 c14 -24 47 -87 74
-140 l49 -98 75 0 75 0 -2 203 -3 202 -47 3 -48 3 0 -143 0 -143 -74 140 -73
140 -72 3 -71 3 0 -206z"/>
<path d="M2720 285 l0 -205 55 0 55 0 0 75 c0 58 3 75 14 75 8 0 34 -34 57
-75 l43 -75 63 0 64 0 -59 88 -59 87 28 26 c34 31 45 70 33 117 -17 65 -79 91
-221 92 l-73 0 0 -205z m178 103 c28 -28 1 -78 -44 -78 -22 0 -24 4 -24 45 0
43 1 45 28 45 15 0 33 -5 40 -12z"/>
</g>
</svg>
